<?xml version="1.0" encoding="utf-8"?>
<!-- Generator: Adobe Illustrator 23.0.1, SVG Export Plug-In . SVG Version: 6.00 Build 0)  -->
<svg version="1.1" id="Layer_1" xmlns="http://www.w3.org/2000/svg" xmlns:xlink="http://www.w3.org/1999/xlink" x="0px" y="0px"
	 viewBox="0 0 64.2 66.6" style="enable-background:new 0 0 64.2 66.6;" xml:space="preserve">
<g>
	<g>
		<g>
			<polygon points="32,18.8 -0.2,0.9 0.2,0 32,17.6 63.8,0 64.2,0.9 			"/>
			<polygon points="32,30.7 4,15.2 4.4,14.3 32,29.6 59.6,14.3 60,15.2 			"/>
			<polygon points="32,42.7 8.2,29.4 8.6,28.6 32,41.5 55.4,28.6 55.8,29.4 			"/>
			<polygon points="32,54.6 12.3,43.7 12.8,42.8 32,53.5 51.2,42.8 51.7,43.7 			"/>
			<polygon points="32,66.6 16.5,58 17,57.1 32,65.4 47,57.1 47.5,58 			"/>
		</g>
	</g>
</g>
</svg>
