<?xml version="1.0" encoding="utf-8"?>
<!-- Generator: Adobe Illustrator 23.0.1, SVG Export Plug-In . SVG Version: 6.00 Build 0)  -->
<svg version="1.1" id="Layer_1" xmlns="http://www.w3.org/2000/svg" xmlns:xlink="http://www.w3.org/1999/xlink" x="0px" y="0px"
	 viewBox="0 0 29.1 29.1" style="enable-background:new 0 0 29.1 29.1;" xml:space="preserve">
<g id="YnSMwl_4_">
	<g>
		<path d="M25.5,3.1c-4.1-3.9-10.6-4.2-15-0.5C5.8,6.5,5.1,13.4,8.7,18.2c0,0-0.1,0.1-0.1,0.1c-2.7,2.7-5.4,5.4-8.1,8
			c-0.6,0.6-0.6,1.7,0,2.3c0.6,0.6,1.6,0.6,2.3,0c2.4-2.4,4.8-4.8,7.2-7.1c0.3-0.3,0.7-0.7,1-1c2.8,2.1,6.1,2.5,8.4,2.1
			c3.1-0.5,5.5-1.9,7.4-4.4C30.2,13.6,29.7,7.1,25.5,3.1z M17.6,20.6c-5.1,0-9.2-4.2-9.2-9.3c0-5.2,4.2-9.3,9.3-9.3
			c5.2,0,9.3,4.2,9.3,9.3C27,16.5,22.8,20.6,17.6,20.6z"/>
	</g>
</g>
</svg>
