<?xml version="1.0" encoding="utf-8"?>
<!-- Generator: Adobe Illustrator 23.0.1, SVG Export Plug-In . SVG Version: 6.00 Build 0)  -->
<svg version="1.1" id="Layer_1" xmlns="http://www.w3.org/2000/svg" xmlns:xlink="http://www.w3.org/1999/xlink" x="0px" y="0px"
	 viewBox="0 0 320.4 423.9" style="enable-background:new 0 0 320.4 423.9;" xml:space="preserve">
<style type="text/css">
	.st0{fill:#153D5C;}
	.st1{fill:#E4545D;}
</style>
<g>
	<g id="PbKXsm.tif_2_">
		<g>
			<path class="st0" d="M211.3,245.7c0-0.9,0.2-2.1,0-3.1c-0.4-1.5-1-3.1-1.9-4.4c-1.6-2.4-3.5-4.7-5.2-7c-0.3-0.4-1.2-1.1-1.3-1
				c-1.6,1.1-3,0.1-4.5-0.3c-1.2-0.3-2-0.1-1.5,1.6c0.5,1.8,0.6,3.8,0.9,5.6c0.1,0.6,0.1,1.2,0.1,1.8c0.8,0.1,1.5,0.3,1.6,0.3
				c-0.2,1.3-0.5,2.5-0.4,3.5c0.3,2.2-1.3,2.8-2.6,3.4c-1.5,0.7-3.2,0.8-4.6,1.4c-2.3,1-3.5,0.4-3.8-2.5c-1,1.5-1.8,2.6-2.5,3.8
				c-1,1.6-2.6,2.2-4.3,1.7c-0.9-0.3-2.1-1.7-2-2.4c0.5-3.7-1.2-5-4.6-4.9c-0.6,0-1.2,0.1-1.9,0.2c-0.8-0.6-2-1.5-3.1-2.4
				c-0.2,0.1-0.5,0.2-0.7,0.3c0,3.1,1.7,5.9,2.1,9c-1.5-1.4-3-2.8-4-4.4c-1-1.7-1.6-3.7-2.5-5.9c-1.4,2.4-3,4.2-3.3,6.3
				c-0.3,2.1,0.6,4.4,1,6.6c-4.4-3-5.4-7.7-7.1-12.1c-0.6-1.4-2.2-2.9-3.2-2.1c-1.5,1.1-3.1,2.2-4.2,3.6c-1.5,1.8-3.2,2.6-5.5,2.5
				c-1.6-0.1-3.2-0.4-4.9-0.6c-1.1-0.2-2.3-0.5-3.4-0.7c-0.1-0.2-0.1-0.4-0.2-0.6c3.6-1,5.7-3.2,5.7-7c-0.5,0-1-0.2-1.4-0.1
				c-3.5,0.4-7,1-10.6,1.2c-2.4,0.1-4.8-0.2-7.1-0.9c-3.7-1.1-4-2-2.8-5.8c0.5-1.5-2.1-5.4-3.7-5.5c-2.3-0.1-4.7,0-7.1,0
				c0.2-1,0.4-2.2,0.8-4c-2.2,1.5-4,1.9-5.8-0.5c-0.1,2.4-0.2,4.1-0.3,5.8c-0.3,0.1-0.5,0.2-0.8,0.3c-0.8-1.3-1.5-2.7-2.3-4
				c-1.6-2.7-2-6.4-5.9-7.5c0.9-0.8,1.6-1.4,2.7-2.3c-2.7-0.9-5.1-1.9-7.7-2.6c-2.5-0.6-5.1-1-7.6-1.4c0-0.2,0-0.5,0-0.8
				c2-0.5,4-0.9,6.4-1.5c-0.4-0.8-0.9-1.5-1.2-2.3c-0.3-0.7-0.9-1.8-0.6-2.2c0.4-0.6,1.5-0.9,2.3-0.9c2.5-0.1,5.1,0,7.6,0
				c0.2-1.1,0.3-1.8,0.5-2.7c1.8,0.5,3.4,1.2,5,1.3c3.3,0.2,6.2-0.8,9-2.7c1.7-1.1,4.1-1.1,6.2-1.7c0.8-0.2,1.6-0.5,2.2-1
				c0.7-0.5,1.3-1.2,2-1.8c0.2,0.2,0.4,0.3,0.6,0.5c-0.2,0.6-0.5,1.2-0.7,1.8c-2.4,5.1-4.9,10.2-7.3,15.3c-0.6,1.3,1.9,4.9,3.6,5
				c0,0,0.1-0.2,0.2-0.3c-2.7-2.4-3.2-3.6-2.2-5.4c2.4-4.2,4.8-8.4,7.4-12.4c1.5-2.3,3.7-4.2,5.6-6.2c1.6-1.7,2.2-3.6,1.9-5.3
				c-0.8,1.1-1.5,2.6-2.7,3.7c-1.4,1.2-3.3,2-4.5,2.7c-0.7-1-1.4-2.3-2.5-3.3c-0.2-0.2-1.7,1-2.6,1.6c0.1,0.2,0.1,0.4,0.2,0.6
				c-1.8-0.2-3.7,0-5-1.8c-0.2-0.3-0.8-0.6-1.2-0.8c-1.9-1-3.9-2-5.8-3c-0.4-0.2-0.5-0.9-0.6-1.4c-0.5-1.4-0.8-3-1.5-4.3
				c-1.3-2.3-2.8-4.5-4.3-6.7c-0.4-0.5-0.9-1.1-1.4-1.3c-2.8-0.8-5.5-1.8-8.5-1.4c-0.5,0.1-1.1-0.3-1.4-0.6c-1-0.9-2-0.9-2.7,0.1
				c-1.9,2.9-3.7,5.9-5.4,8.9c-0.2,0.4,0,1.1,0,2.2c1.3-2.3,3.1-2.9,4.9-2.5c1,0.2,2,1.3,1.2,3.1c-0.6-0.3-1.3-0.6-1.9-0.8
				c-0.6-0.2-1.2-0.4-1.9-0.5c-0.1,0-0.4,0.8-0.3,1c0.4,0.5,0.9,1,1.4,1.3c0.3,0.2,0.7,0.2,1.1,0.3c0,0.9-0.1,1.7,0,2.5
				c0.2,2,1.8,2.5,3.3,2.9c0.5,0.1,1.2-1,2-1.7h2c0.6,1,1.2,1.9,1.8,3c-2.3,0.2-4.5,0.5-6.6,0.4c-2-0.1-4-0.3-3.9-3.4
				c0-2.1-1.4-2.8-3-2c0.7,1.2,1.3,2.3,2.1,3.8c-3-1-2.5-3.6-3.3-5.4c-0.2,0-0.4,0-0.6,0c-0.5,1-1.1,2-1.5,3
				c-0.8,2.2-1.6,4.3-2.3,6.5c-1,3.1-1.8,6.2-2.9,9.3c-0.4,1.2-1.2,2.3-2,3.2c-0.3,0.3-1.4-0.1-2.1-0.4c-0.1,0,0.1-1,0.2-1.8
				c-1.4-1-0.8-2.8-0.4-4.4c0.6-2.6,1.6-5,2.4-7.5c1.2-3.9,2-7.9,3.4-11.7c1.8-4.9,3.7-9.9,6.1-14.6c1.7-3.2,4.2-6.1,6.3-9
				c1-1.4,2-2.7,3.1-4.2c-0.6-0.3-1.1-0.4-1.5-0.7c-3-1.8-3.4-1.8-6,0.8c-1.5,1.5-3,3-4.5,4.5c-0.2-0.1-0.4-0.2-0.6-0.4
				c0.7-2.4,1.3-4.8,2.1-7.6c-1.3,0.5-2.7,0.9-4.1,1.4c-1.4,0.5-2.8,1.5-4.2,1.4c-3.1-0.1-3.6,3.2-5.9,4c-0.9,3.5-4.5,4.1-6.7,6.7
				c-0.4-0.9-0.6-1.5-1.1-2.6c-0.5,1.4-0.9,2.3-1.3,3.2c-0.4,0.9-0.6,2.1-1.3,2.7c-3.1,2.7-4.1,6.3-3.8,10.2
				c0.2,3.6,0.9,7.2,1.5,10.9c0.5,2.8,2.5,4.5,4.8,6c2.8,1.8,5.6,3.6,8.3,5.5c1.4,1,1.6,2.5,1.4,4.1c-0.2,2.7-0.6,5.4-0.5,8.1
				c0.1,1.4,0.9,3,1.8,4.1c1.1,1.3,1.3,2.4,0.3,3.7c-1.3,1.6-2.7,3.2-4.1,4.7c-7.1,7.2-14.3,14.3-21.4,21.5c-1,1.1-1.8,2.4-2.5,3.8
				c-2.1,4.2-4,8.6-7.8,11.7c-1.1,0.9-1.7,2.3-2.5,3.5c-1,1.5-1.9,3.3-3.1,4.6c-2.2,2.3-4.4,4.4-5.5,7.5c-0.2,0.8-1,1.5-1.6,2.2
				c-3.4,3.5-7.1,6.7-10.3,10.4c-2.3,2.7-4.2,5.7-6.1,8.6V424h74.7c0.2-0.5,0.3-1.1,0.2-1.6c-0.3-1.3-1-2.5-1.6-4
				c1-0.1,2.2,0,3.4-0.2c0.5-0.1,0.9-0.7,1.4-1.1c-0.4-0.4-0.7-1-1.1-1.2c-1.8-0.7-3.6-1.3-5.4-2c-0.4-0.2-1-0.6-1-1
				c0-0.3,0.5-0.8,0.9-1.1c0.7-0.4,1.2-1,1.4-1.6c0.1-0.3,0.2-0.6,0.2-0.9c0-0.7-0.3-1.3-0.9-2c-0.6-0.6-1.1-1.3-1.4-2
				c-0.5-1.4-0.4-2.5,1.5-2.6c0.7,0,1.7-0.3,2-0.9c2.1-3.1,6-5,5.8-9.5c0-1.3,0.5-2.6,0.9-4.1c-0.9,0.1-1.4,0.2-2,0.2
				c-0.1-0.4-0.2-0.8-0.1-1.1c1.3-3.1,0.5-6.1-0.6-9c-1.1-2.7-2.7-5.3-3.6-8.1c-0.4-1.4-1.6-1.6-2.3-2.4c-1.8-2.1-3.3-4.5-5.1-6.7
				c-0.6-0.8-1.5-1.3-2.2-2c-0.1,0.1-0.2,0.3-0.3,0.4c0.2,1.3,0.5,2.6,0.7,3.9c-0.2,0-0.4,0.1-0.6,0.1c-0.2-0.3-0.5-0.7-0.5-1
				c-0.2-1.8-1.4-2.4-3-3.1c-1.8-0.8-3.3-1.8-5.4-1.5c-0.6,0.1-1.4-0.5-2-0.7c0.8-0.4,1.4-0.4,2-0.5c1.8-0.4,3.9-0.5,5.2-1.5
				c1.6-1.3,3.1-1.8,5-1.8c1.1,0,2.3-0.4,3.4-0.5c1.2,0,2.5-0.1,3.6,0.3c2.7,1,3.7,3.3,3.8,6c0.1,5.2,0.2,5.6,2.6,9
				c0.5-4.9,2.9-8.6,6.5-11.6c3.3-2.7,5.5-6,6-10.3c0.4-3.5,0.9-7,1.3-10.4c0-0.1-0.2-0.3-0.7-0.8c-0.3,1.7-0.6,3-0.6,4.3
				c-0.1,1.7,0.1,3.5-0.1,5.2c-0.1,1.1-0.8,2-1.5,3.6c-0.8-1-1.1-1.4-1.4-1.8c-0.1-0.2-0.3-0.3-0.3-0.5c-1-3.8-2.5-7.2-7.6-5.8
				c-0.1-2.1-0.8-2.5-2.5-1.6c-2.9,1.6-5.5,0.9-8.3-1.7c1.1-0.1,2.1-0.4,3-0.2c2,0.2,4.4-1.3,5-3.2c0.5-1.6,1.2-3.1,1.9-4.6
				c0.5-1.2,1.2-2.2,2-3.6c-2.2,0.5-3.9,0.9-6,1.4c1.1-2.7,1.9-4.8,2.8-6.9c0.2-0.5,0.9-0.8,1.4-1.1c1-0.6,2.1-0.9,3-1.6
				c0.8-0.6,1.4-1.6,2.2-2.3c1.5-1.6,3.7-2.9,4.2-4.7c0.8-3.2,3.1-5.3,4.8-7.8c1.8-2.6,3-5.3,3.6-8.2c0.7-3.3,2.1-6.1,4.2-8.7
				c3.1-3.8,6-7.8,8.8-11.8c2.4-3.3,4.6-6.8,6.6-10.4c1.3-2.3,3.1-1.4,4.9-1.4c0.7,0,1.6,0.3,2.1,0c6.6-2.9,12.9-1.6,17.9,3.6
				c0.7,0.7,1.8,1.2,2.8,1.5c3.6,0.8,7.5,1,10.9,2.3c2.8,1.1,5.4,1.6,8.2,1.6c4.5,0,8.9-0.1,13.4,0c2.3,0,4.4-0.3,6.3-1.7
				c0.9-0.6,2.1-0.6,3.1-1c1.6-0.6,3.3-1.3,4.8-2.1c1.7-1,3.3-2.2,5-3.3c3.2-2,7.1-2.9,9.7-6c0.6-0.7,1.7-1.2,2.7-1.5
				c3.6-1.3,5.5-4,6.4-7.8C214.7,246.9,213.1,246.3,211.3,245.7z M71.8,376.5c-1.9-1.2-3.8-2.9-5.9-3.1c-2.5-0.3-3.2-1.9-3.9-3.6
				c0-0.1,0-0.1,0-0.2c-0.2-0.6-0.3-1.4-0.3-2.1c0-0.2,0-0.5,0-0.7c0-0.2,0-0.5,0.1-0.7c0.1-0.9,0.2-1.7-0.3-2.3
				c0,0-0.1-0.1-0.1-0.1c0-0.1-0.1-0.1-0.1-0.1c-0.1,0-0.1-0.1-0.1-0.1c-0.2-0.2-0.5-0.3-0.8-0.4h0c0,0.1-0.1,0.1-0.1,0.2
				c-0.1,0.1-0.2,0.3-0.3,0.4c-0.3,0.4-0.5,0.8-0.4,1c0.8,1.9,0,3-1.7,3.6c0.2,0.6,0.3,1.2,0.5,1.8c0.1,0.2,0.1,0.3,0.2,0.5
				c0.5,1.4,1.2,2.6,2.1,3.5c1,1,2.1,1.7,3.5,2.2c2.7,1.1,5.2,2.5,8,3.9C73.1,379.3,73.2,377.4,71.8,376.5z M95,224.8
				c-0.4-0.8-0.7-1.5-1.1-2.3c-0.4-0.8-0.8-1.5-1.2-2.3c-0.3-0.5-0.5-1-0.8-1.4c-0.8-1.3-1.8-2.3-2.8-3c-2-1.4-4.5-1.7-7.8-1.1
				c0.3,0.2,0.7,0.4,1,0.5c0.7,0.3,1.4,0.7,2.1,1c0.3,0.2,0.7,0.3,1,0.5c0.7,0.3,1.3,0.7,2,1.1c0.3,0.2,0.6,0.4,0.9,0.6
				c0.3,0.2,0.6,0.4,0.9,0.7c0.2,0.2,0.4,0.4,0.6,0.6c0,0,0.1,0.1,0.2,0.1c0.1,0.1,0.1,0.1,0.2,0.2c1.3,1.4,2.4,3,3.4,4.6
				c0.3,0.5,0.7,1,1,1.5h0c0.2-0.1,0.3-0.1,0.5-0.2C95.2,225.6,95.2,225.2,95,224.8z M82.9,312.3c-0.2-0.2-0.4-0.3-0.6-0.4
				c-0.1,0-0.1-0.1-0.2-0.1c-0.1-0.1-0.3-0.2-0.5-0.3c-0.2-0.1-0.3-0.2-0.5-0.3c-0.1-0.1-0.3-0.2-0.4-0.3s-0.2-0.3-0.3-0.4
				c-0.3,1-0.6,1.9-1,3.1c-0.2,0-0.4,0.1-0.6,0.1c-0.2,0-0.4,0.1-0.6,0.1c-0.4,0.1-0.9,0.1-1.3,0.2c-0.9,0.1-1.9,0.2-2.8,0.2
				c-1.4,0-2.8-0.3-4.2-0.5c-0.5-0.1-0.9-0.1-1.4-0.2c-0.1,0.3-0.2,0.6-0.4,0.9c0.2,0.1,0.4,0.2,0.5,0.3c0.2,0.1,0.3,0.2,0.5,0.3
				c0.1,0,0.2,0.1,0.3,0.2c0.2,0.1,0.4,0.2,0.5,0.2c0.1,0,0.2,0.1,0.3,0.1c1.2,0.2,2.5,0.2,3.7,0.3c1.4,0,2.8,0.2,4.1-0.1
				c0.6-0.1,1.2-0.3,1.8-0.6c0.4-0.2,0.8-0.3,1.2-0.5c0.4-0.2,0.8-0.4,1.2-0.5c0.2-0.1,0.4-0.2,0.6-0.3
				C83.3,313.1,83.2,312.6,82.9,312.3z M79.2,224.9c-0.5-0.6-1.1-1.2-1.6-1.8c-0.1-0.1-0.2-0.2-0.4-0.4s-0.2-0.2-0.4-0.4
				c-0.2-0.2-0.5-0.5-0.8-0.7c-0.3-0.2-0.5-0.5-0.8-0.7c-0.2-0.2-0.5-0.5-0.7-0.8c-0.2-0.3-0.4-0.5-0.7-0.8
				c-0.2-0.2-0.4-0.3-0.5-0.5c-0.3-0.2-0.6-0.4-0.9-0.6c-0.1-0.1-0.2-0.1-0.3-0.2c-0.2-0.1-0.5-0.2-0.7-0.3
				c-0.9-0.3-1.8-0.4-2.7-0.2c2.9,2.5,5.7,5,8.5,7.4c0.9,0.8,1.9,1.6,2.8,2.4c0.2-0.2,0.5-0.4,0.8-0.7
				C80.3,226.1,79.8,225.5,79.2,224.9z M84.5,220.4c-0.9-0.6-1.8-1.3-2.7-1.9c-0.9-0.6-1.8-1.2-2.7-1.8c-0.1-0.1-0.2-0.1-0.3-0.2
				c-0.2-0.1-0.5-0.2-0.7-0.3c-0.6-0.2-1.3-0.4-2.2-0.6c0.3,0.9,0.3,1.3,0.4,1.4c2.6,1.6,5.3,3.1,8,4.6c0.1,0,0.3-0.1,0.5-0.2
				c0.1,0,0.1-0.1,0.2-0.2c0,0,0.1,0,0.1-0.1v0C84.8,220.8,84.7,220.5,84.5,220.4z M69.4,321.3c-0.1-0.1-0.2-0.2-0.4-0.4
				c-1.2-1.1-2.6-2-4.6-2.4c0.8,1.2,1.5,2.2,2.2,2.9c0.2,0.2,0.5,0.5,0.7,0.7c1.4,1.2,2.6,1.6,3.5,1
				C70.4,322.5,69.9,321.9,69.4,321.3z M87.5,307.9c0-0.9-0.3-1.7-0.5-2.8c-0.6,0.4-1.2,0.9-1.8,1.4h0c0.2,0.2,0.4,0.4,0.5,0.5
				c0.3,0.3,0.5,0.5,0.6,0.8c0,0.1,0,0.2-0.1,0.2c-0.2,0.3-0.5,0.6-0.7,0.6c-1.2-0.1-1.9,0.2-2,1.5c0.8-0.1,1.5-0.3,2.3-0.3
				c0.3,0,0.6-0.1,0.8-0.1c0.1,0,0.2-0.1,0.3-0.2C87.4,309.3,87.6,308.7,87.5,307.9z M75,322.4c-0.1-0.7-0.2-1.2-0.5-1.6l0,0
				c-0.2,0.4-0.4,0.7-0.6,1c-0.5,1-1.1,2-1.5,3c-0.1,0.2,0,0.5,0.1,0.8c0.1,0.1,0.1,0.2,0.2,0.3c0.1,0.1,0.1,0.2,0.2,0.2
				c0.2,0.2,0.6,0.2,0.9,0.1c0.1,0,0.2-0.1,0.3-0.1c0,0,0.1-0.1,0.1-0.1C74.8,325.4,75.1,323.8,75,322.4z M204.2,240.3
				c-0.2,0-0.3-0.1-0.5-0.1c-0.8,1.7-1.6,3.5-2.5,5.2c0.7,0.3,1.4,0.5,2.1,0.8c0.1-0.5,0.2-1,0.2-1.5c0.2-1,0.3-2,0.5-2.9
				c0-0.1,0-0.1,0-0.2C204.1,241.2,204.1,240.7,204.2,240.3L204.2,240.3z M213.2,248.5c-0.1,0.1-0.3,0.2-0.4,0.2
				c-0.1,0.1-0.1,0.1-0.2,0.2c-0.1,0-0.1,0.1-0.2,0.2c-0.1,0.1-0.2,0.2-0.3,0.4c-0.4,0.6-0.5,1.5-0.3,2.4c0.1,0.3,0.4,0.6,0.6,0.9
				c0.1-0.1,0.2-0.2,0.4-0.3c0.1-0.1,0.2-0.1,0.2-0.2c0.1-0.1,0.2-0.2,0.2-0.3c0.3-1.2,0.5-2.4,0.8-3.8
				C213.9,248.3,213.5,248.4,213.2,248.5z M55.2,360.7c-0.2,0-0.4,0.1-0.6,0.1c0.2,0.2,0.2,0.4,0.3,0.7c0.1,0.5-0.1,1.1-0.3,1.6
				c0,0,0,0,0,0c-0.3,0.9-0.6,1.8,0.1,2.5c0.1,0.1,0.2,0.2,0.4,0.3c0.3,0,0.7-0.1,1-0.2C55.8,364.1,55.5,362.4,55.2,360.7z"/>
			<path class="st0" d="M207.8,222.5c1.7-1.5,3.4-3,5.2-4.4c2.1-1.7,4.4-3.2,6.4-5c0.9-0.8,1.4-2.3,1.6-3.6c0.3-1.5-0.1-3.1,0.1-4.6
				c0.1-0.9,0.6-2,1.3-2.6c1.8-1.5,2.8-3.6,2.9-5.7c0.1-2.1,1-2.1,2.6-1.8c0.1,0.3,0.2,0.6,0.2,0.9c0,1.6,0.6,1.8,1.9,1.2
				c1.7-0.8,3.1-0.6,3.9,1.5c0.5,1.4,1.3,2.6,2.5,3.8c-0.1-0.5-0.1-1-0.2-1.6c3-0.8,3.5,2.3,5.4,3.2c-2.6,2.8-2.6,2.8-0.9,4.2
				c0.8-1,1.6-2,2.3-2.9c0.2,0,0.5,0,0.7,0c0.1,0.8,0.6,1.8,0.2,2.3c-1.7,2.7-1.1,4.9,1.2,7.5c-1.6,0.4-2.9,0.9-4.2,1
				c-3.5,0.3-5.5,2.4-5.8,5.9c-0.3,3.4-1.3,6.6-3.9,9.2c-3,2.9-6,5.9-8.9,8.9c-2,2-3.8,4.1-5.8,6.2c-0.4-1-1.3-2.2-1.3-3.4
				c0-1.2,0.8-2.4,1.4-3.9c-2.4,0.1-3-1.3-3-3.5c1,0.1,2.1,0.1,3.6,0.2c1.7-1.6,3.6-3.6,5.6-5.6c1.7-1.7,3.4-3.5,5.2-5.1
				c1-0.9,2.2-1.6,3.4-2.1c1.4-0.5,1.7-1.2,1.2-2.6c-0.2-0.5,0-1.2,0-2.2c-1.8-0.2-3.5-0.3-5.1-0.8c-1.6-0.4-3.5-0.4-4.1-2.7
				c-0.4-1.4-1.5-1.5-2.8-0.6c-4,3-8.1,5.9-12.1,8.8c-0.1,0.1-0.2,0-0.4,0C208,222.8,207.9,222.7,207.8,222.5z"/>
			<path class="st0" d="M115,170.8c0.8-1.7,1.4-3,2.2-4.6c0.5,0.7,0.8,0.9,0.9,1.3c0.4,1.2,0.7,2.4,1,3.6
				C117.9,171,116.8,170.9,115,170.8z"/>
			<path class="st0" d="M88.8,339.8c0-2.1,0-4.2,0-6.7c0.8,0.5,1.5,1,2.3,1.5c-0.2,0.1-0.3,0.1-0.5,0.2c0.1,1.2,0.3,2.3,0.2,3.5
				c-0.1,0.7-0.7,1.3-1.1,2C89.4,340.2,89.1,340,88.8,339.8z"/>
			<path class="st0" d="M110.5,170.2c-0.2-1.7-0.4-3.3-0.5-5c0-0.2,1-0.7,1.1-0.6c0.5,0.4,1.1,1,1.1,1.5c-0.1,1.4-0.6,2.7-0.9,4.1
				C111,170.1,110.7,170.1,110.5,170.2z"/>
			<path class="st0" d="M150.5,230.5c-1.8,0.4-3.1,0.8-4.4,1c-0.4,0-0.9-0.6-1.4-0.9c0.1-0.2,0.2-0.3,0.2-0.5
				C146.7,230.3,148.4,230.4,150.5,230.5z"/>
			<path class="st0" d="M103.5,157.7c-2.1-0.8-2-1.5,0-3.3C103.5,155.5,103.5,156.6,103.5,157.7z"/>
			<path class="st0" d="M118.3,217.1c1.8,0.4,3.6,0.9,5.4,1.3c0,0.1-0.1,0.2-0.1,0.3c-1.8-0.3-3.7-0.7-5.5-1
				C118.2,217.5,118.3,217.3,118.3,217.1z"/>
			<path class="st0" d="M72.3,381.2c-2.9-1.4-5.4-2.8-8-3.9c-2.8-1.1-4.7-2.9-5.7-5.8c-0.2-0.7-0.4-1.4-0.6-2.3
				c1.7-0.6,2.5-1.7,1.7-3.6c-0.2-0.4,0.5-1.1,0.8-1.6c1.7,0.7,1.6,1.7,1.5,3.1c-0.1,1.2-0.2,2.6,0.3,3.7c0.7,1.7,1.3,3.3,3.9,3.6
				c2.1,0.3,4,1.9,5.9,3.1C73.2,378.4,73.1,380.3,72.3,381.2z"/>
			<path class="st0" d="M81.4,215.8c5.5-1.1,8.7,0.5,11.4,5.4c0.8,1.5,1.5,3.1,2.3,4.6c0.2,0.4,0.1,0.8,0.2,1.2
				c-0.2,0.1-0.4,0.1-0.5,0.2c-1.8-2.4-3.3-5.1-5.5-7C87,218.3,84.1,217.3,81.4,215.8z"/>
			<path class="st0" d="M68.5,314.4c1.8,0.3,3.7,0.7,5.5,0.7c1.9,0,3.8-0.4,5.4-0.6c0.4-1.2,0.7-2.1,1-3.1c0.9,1.4,3.5,1.3,2.7,3.3
				c-1.7,0.7-3.3,1.5-5,1.9c-1.3,0.3-2.8,0.1-4.1,0.1c-1.2,0-2.5,0-3.7-0.3c-0.8-0.2-1.4-0.7-2.1-1.1
				C68.2,315,68.3,314.7,68.5,314.4z"/>
			<path class="st0" d="M80.1,228.4c-3.7-3.2-7.4-6.5-11.2-9.9c2-0.5,4.6,0.9,5.9,2.5c0.8,1.1,2,1.9,2.9,3c1.1,1.2,2.1,2.5,3.2,3.7
				C80.6,228,80.3,228.2,80.1,228.4z"/>
			<path class="st0" d="M75.8,216.6c1.4,0.4,2.4,0.6,3.2,1.1c1.9,1.1,3.6,2.4,5.4,3.7c0.2,0.2,0.4,0.5,0.6,0.7
				c-0.3,0.2-0.6,0.5-0.8,0.5c-2.7-1.5-5.3-3-8-4.6C76.1,217.9,76.1,217.5,75.8,216.6z"/>
			<path class="st0" d="M64.4,319.6c3.2,0.7,4.9,2.4,6.5,4.6C69.4,325.1,66.9,323.4,64.4,319.6z"/>
			<path class="st0" d="M85.2,307.5c0.7-0.5,1.3-1,1.8-1.4c0.2,1.1,0.5,2,0.5,2.8c0.1,1.1-0.3,2-1.7,2c-0.8,0-1.5,0.2-2.3,0.3
				c0.1-1.3,0.8-1.7,2-1.6c0.2,0,0.8-0.7,0.7-0.8C86.1,308.4,85.7,308.1,85.2,307.5z"/>
			<path class="st0" d="M74.4,321.8c0.9,1.1,0.7,4.6-0.4,5.3c-0.3,0.2-1,0.2-1.2,0c-0.3-0.3-0.7-1-0.5-1.3
				C72.9,324.5,73.7,323.2,74.4,321.8z"/>
			<path class="st0" d="M204.2,241.3c-0.3,1.9-0.6,3.8-0.9,5.9c-0.7-0.3-1.4-0.5-2.1-0.8c0.8-1.8,1.6-3.5,2.5-5.2
				C203.8,241.2,204,241.3,204.2,241.3z"/>
			<path class="st0" d="M214.2,249.3c-0.3,1.4-0.5,2.6-0.8,3.8c-0.1,0.3-0.5,0.5-0.8,0.7c-0.2-0.3-0.6-0.6-0.7-0.9
				C211.5,251,212.5,249.4,214.2,249.3z"/>
			<path class="st0" d="M55.1,366.9c-2.2-1.4,0.6-3.5-0.5-5.1c0.2,0,0.4-0.1,0.6-0.1c0.3,1.7,0.6,3.3,0.9,5
				C55.7,366.8,55.4,366.8,55.1,366.9z"/>
		</g>
	</g>
	<path class="st1" d="M296.7,48.9c5.5,0.2,14.4-4,20.8-9.9c1.1-1,2-2,3-3v16.2c-1.6,1.9-3.3,3.7-5.2,5.5c-6.3,5.9-14,10.4-21.3,15.1
		c-7.3,4.8-15,10.6-19,16.8c-0.5,0.8-1,1.7-0.7,2.1c0.3,0.4,1.1,0.3,1.9,0.2c5.4-1.1,12.2-4.7,17.7-9.3c-1.6,4.9-6.2,10.8-12,15.6
		c-2.9,2.4-6.3,4.7-8.2,7.4s0,4.8,3,2.6c-11.1,14.4-23.7,29.9-40.5,41.1c-11.3,7.6-23.2,12.2-33.5,14.4c0,0,0,0-0.1,0
		c0,0-0.1,0-0.1,0c1.9,1.3,3.7,2.6,5.6,3.9c-22.3,10.4-41.9,9.1-45.9-2.9c-0.8-2.3-4-2.8-6.8-3.5c-6.7-1.9-10.7-6.6-11.4-13.2
		c-0.2-2.5,0-5.2-0.2-7.7c-0.4-5.2-2.6-9.4-2.5-14.9c0.3-12.2,13.2-30.7,30.9-44c10.4-7.9,21.8-13.8,32.8-20.1
		c11-6.3,22.6-13.6,31.3-22.6c2.3,1.7-0.1,6.6-3.9,10.7c-3.8,4.1-8.7,7.7-13.4,11.4c-4.6,3.7-9.3,7.9-11.7,12
		c-1.7,2.9,2.4,3,5.9,0.8c3.5-2.2,6.2-5.4,8.8-8.4c2.4-2.6,5-5.2,7.8-7.7c-0.1,0,0-0.1,0.1-0.2c0,0,0,0,0,0
		c4.8-4.2,10.1-8.2,15.5-11.5c6.7-4.1,13.5-7.2,20.3-11c6.8-3.8,13.8-8.4,19-14c0.9,2.6-1.5,7.1-4.9,11.2
		c-3.5,4.1-7.9,7.9-12.4,11.6c5.5,0.7,14.8-3.5,21.7-9.6c9.7-8.7,12.9-18.9,22.5-27.7c2.7-2.5,5.7-4.7,8.9-6.5v19
		c-1.4,3.2-2.7,6.4-4.6,9.6c-3.3,5.5-8.9,11.5-15.4,16.1C298.6,46,296.3,48,296.7,48.9z"/>
</g>
</svg>
