<?xml version="1.0" encoding="utf-8"?>
<!-- Generator: Adobe Illustrator 23.0.1, SVG Export Plug-In . SVG Version: 6.00 Build 0)  -->
<svg version="1.1" id="Layer_1" xmlns="http://www.w3.org/2000/svg" xmlns:xlink="http://www.w3.org/1999/xlink" x="0px" y="0px"
	 viewBox="0 0 726 788.7" style="enable-background:new 0 0 726 788.7;" xml:space="preserve">
<style type="text/css">
	.st0{fill:#153D5C;}
	.st1{fill:#E5535D;}
</style>
<g id="PbKXsm.tif_2_">
	<g>
		<path class="st0" d="M551.9,592.9c0-1.1,0.3-2.5-0.1-3.7c-0.5-1.8-1.2-3.7-2.3-5.2c-1.9-2.9-4.1-5.6-6.3-8.4
			c-0.4-0.5-1.4-1.3-1.6-1.2c-2,1.4-3.6,0.1-5.4-0.3c-1.5-0.4-2.4-0.1-1.7,1.9c0.7,2.2,0.7,4.5,1.1,6.8c0.1,0.7,0.1,1.4,0.2,2.1
			c1,0.2,1.8,0.3,1.9,0.3c-0.2,1.6-0.6,2.9-0.4,4.2c0.3,2.6-1.5,3.3-3.2,4c-1.7,0.8-3.8,1-5.5,1.7c-2.8,1.2-4.2,0.5-4.6-2.9
			c-1.2,1.8-2.1,3.1-3,4.5c-1.2,1.9-3.2,2.6-5.1,2.1c-1.1-0.3-2.6-2-2.4-2.9c0.5-4.4-1.4-6-5.5-5.8c-0.7,0-1.4,0.1-2.2,0.2
			c-1-0.8-2.4-1.8-3.7-2.9c-0.3,0.1-0.5,0.2-0.8,0.4c0.1,3.7,2,7,2.6,10.7c-1.8-1.7-3.6-3.3-4.8-5.3c-1.2-2-1.9-4.4-3-7.1
			c-1.6,2.9-3.6,5.1-4,7.5c-0.4,2.5,0.7,5.2,1.2,7.9c-5.2-3.5-6.4-9.2-8.5-14.4c-0.7-1.7-2.6-3.5-3.9-2.5c-1.8,1.3-3.7,2.6-5,4.3
			c-1.8,2.2-3.9,3.2-6.6,3c-2-0.1-3.9-0.5-5.8-0.8c-1.4-0.2-2.7-0.5-4.1-0.8c-0.1-0.2-0.2-0.5-0.3-0.7c4.3-1.2,6.8-3.8,6.8-8.4
			c-0.6,0-1.2-0.2-1.7-0.1c-4.2,0.5-8.4,1.2-12.7,1.4c-2.8,0.1-5.8-0.2-8.5-1c-4.5-1.3-4.8-2.4-3.4-7c0.6-1.8-2.5-6.5-4.4-6.5
			c-2.8-0.1-5.6,0-8.5,0c0.2-1.2,0.5-2.7,0.9-4.8c-2.7,1.8-4.8,2.3-7-0.6c-0.2,2.9-0.3,4.9-0.4,6.9c-0.3,0.1-0.6,0.2-0.9,0.3
			c-0.9-1.6-1.8-3.2-2.8-4.8c-1.9-3.3-2.4-7.6-7.1-9c1.1-0.9,1.9-1.7,3.2-2.7c-3.2-1.1-6.1-2.3-9.2-3.1c-3-0.8-6.1-1.1-9.1-1.7
			c0-0.3,0-0.6,0-0.9c2.4-0.5,4.8-1.1,7.7-1.8c-0.5-0.9-1.1-1.8-1.5-2.8c-0.4-0.9-1.1-2.2-0.8-2.6c0.5-0.7,1.8-1,2.8-1.1
			c3-0.1,6.1,0,9.1,0c0.2-1.3,0.4-2.1,0.6-3.2c2.1,0.6,4,1.5,6,1.6c3.9,0.3,7.4-1,10.8-3.2c2-1.3,4.9-1.3,7.4-2
			c0.9-0.3,1.9-0.6,2.7-1.2c0.9-0.6,1.6-1.5,2.4-2.2c0.2,0.2,0.4,0.4,0.7,0.6c-0.3,0.7-0.5,1.4-0.9,2.1c-2.9,6.1-5.8,12.2-8.7,18.2
			c-0.8,1.6,2.3,5.8,4.2,6c0.1,0,0.1-0.2,0.2-0.4c-3.2-2.8-3.9-4.2-2.6-6.4c2.9-5,5.7-10.1,8.9-14.9c1.8-2.7,4.4-5,6.6-7.4
			c1.9-2,2.7-4.3,2.2-6.3c-0.9,1.3-1.8,3.1-3.2,4.4c-1.7,1.5-3.9,2.4-5.4,3.3c-0.8-1.2-1.7-2.8-2.9-4c-0.2-0.2-2,1.2-3.1,1.9
			c0.1,0.2,0.2,0.5,0.2,0.7c-2.1-0.2-4.4,0-6-2.2c-0.3-0.4-0.9-0.7-1.4-0.9c-2.3-1.2-4.6-2.3-6.9-3.6c-0.4-0.3-0.5-1.1-0.8-1.7
			c-0.6-1.7-0.9-3.6-1.8-5.2c-1.5-2.8-3.4-5.4-5.2-8c-0.4-0.6-1-1.4-1.7-1.6c-3.3-1-6.5-2.2-10.1-1.7c-0.5,0.1-1.3-0.3-1.7-0.8
			c-1.2-1.1-2.4-1.1-3.2,0.1c-2.2,3.5-4.4,7.1-6.5,10.7c-0.3,0.5,0,1.3,0,2.6c1.5-2.8,3.6-3.4,5.8-3c1.2,0.2,2.4,1.5,1.5,3.7
			c-0.8-0.3-1.5-0.7-2.3-0.9c-0.7-0.2-1.5-0.5-2.2-0.6c-0.1,0-0.5,1-0.4,1.3c0.4,0.6,1,1.1,1.6,1.6c0.3,0.2,0.8,0.2,1.4,0.3
			c0,1.1-0.1,2,0,3c0.2,2.3,2.2,3,4,3.5c0.5,0.1,1.4-1.2,2.4-2h2.3c0.8,1.2,1.4,2.2,2.2,3.5c-2.8,0.2-5.4,0.6-7.9,0.4
			c-2.4-0.1-4.8-0.4-4.7-4.1c0.1-2.5-1.7-3.3-3.6-2.4c0.8,1.4,1.5,2.8,2.5,4.6c-3.6-1.2-3-4.3-4-6.5c-0.2,0-0.5,0-0.7,0
			c-0.6,1.2-1.3,2.4-1.8,3.6c-1,2.6-1.9,5.2-2.8,7.8c-1.2,3.7-2.2,7.5-3.5,11.1c-0.5,1.4-1.4,2.8-2.4,3.9c-0.3,0.4-1.7-0.2-2.5-0.5
			c-0.1,0,0.1-1.2,0.3-2.1c-1.7-1.2-0.9-3.4-0.5-5.2c0.7-3.1,1.9-6,2.8-9c1.4-4.7,2.4-9.4,4.1-14c2.1-5.9,4.4-11.8,7.3-17.5
			c2-3.9,5-7.2,7.5-10.8c1.2-1.6,2.4-3.2,3.7-5c-0.8-0.3-1.3-0.5-1.8-0.8c-3.6-2.2-4.1-2.1-7.1,1c-1.8,1.8-3.6,3.6-5.4,5.4
			c-0.2-0.1-0.5-0.3-0.7-0.4c0.8-2.9,1.6-5.7,2.5-9.1c-1.6,0.5-3.2,1.1-4.9,1.6c-1.7,0.6-3.4,1.8-5,1.7c-3.7-0.1-4.3,3.8-7.1,4.8
			c-1.1,4.2-5.4,4.9-8,8c-0.4-1.1-0.7-1.8-1.3-3.1c-0.7,1.6-1.1,2.8-1.6,3.9s-0.8,2.5-1.6,3.2c-3.7,3.3-4.9,7.5-4.6,12.1
			c0.3,4.3,1.1,8.7,1.8,13c0.6,3.4,3.1,5.4,5.8,7.1c3.3,2.2,6.7,4.3,9.9,6.6c1.7,1.2,1.9,3,1.7,4.9c-0.3,3.2-0.8,6.4-0.6,9.6
			c0.1,1.7,1,3.6,2.2,4.9c1.3,1.6,1.6,2.9,0.3,4.4c-1.6,1.9-3.2,3.8-5,5.6c-8.5,8.6-17.1,17.1-25.6,25.7c-1.2,1.3-2.2,2.9-3,4.5
			c-2.5,5-4.7,10.2-9.3,14c-1.3,1.1-2,2.8-3,4.2c-1.2,1.8-2.2,3.9-3.7,5.5c-2.6,2.7-5.3,5.3-6.5,9c-0.3,1-1.2,1.8-1.9,2.6
			c-4.1,4.2-8.5,8-12.3,12.5c-3.5,4.1-6.3,8.8-9.4,13.3c-0.1,0.1-0.1,0.3-0.2,0.5c-1.2,1.8-2.3,3.8-3.7,5.5c-1.7,2-3.6,4-5.6,5.7
			c-4.9,3.8-7.5,9-8.5,14.8c-0.3,2-0.6,4.1-0.8,6.2c-0.3,3.2-0.3,6.5,0,9.7c0.6,6.6-2.1,12.3-3.7,18.3c-0.3,1-1.2,2-2.1,2.7
			c-1.9,1.5-4.2,2.5-5.9,4.1c-7.6,7.2-11.7,15.9-11.7,26.5c0,2.8,0.1,5.5-1.6,7.9c-0.5,0.7-0.5,1.8-0.3,2.6c0.5,2.2-0.4,3.9-1.8,5.4
			c-2.2,2.3-4.5,4.4-6.7,6.8c-0.9,1-1.3,2.4-1.9,3.6c0.2,0.2,0.5,0.5,0.8,0.8c3.2-1.2,6.5-2.2,9.7-3.5c4.6-1.9,8.7-5.2,14.3-4.5
			c1.2,0.1,3.2-1.2,3.9-2.4c1.6-2.5,2.7-5.3,4-8s2.6-5.4,4-8c0.3-0.6,1.2-0.9,1.9-1.3c0.2,0.7,0.7,1.4,0.7,2.1
			c0,1.1-0.2,2.2-0.6,3.2c-2.1,5.2,0.7,8.7,4,12c0.8,0.9,1.9,2,1.9,3.1c0.1,4.1,0.2,8.3-0.3,12.4c-0.3,2.4-0.9,4.8-1.6,7.2H387
			c0-0.8-0.4-1.6-1-2.4c-0.7-0.7-1.3-1.5-1.7-2.4c-0.6-1.6-0.4-3,1.8-3.1c0.8-0.1,2-0.4,2.4-1c2.5-3.7,7.2-5.9,7-11.3
			c-0.1-1.5,0.6-3.1,1-4.9c-1,0.1-1.6,0.2-2.3,0.3c-0.1-0.5-0.3-1-0.1-1.3c1.6-3.7,0.6-7.3-0.8-10.7c-1.3-3.3-3.2-6.3-4.3-9.7
			c-0.5-1.7-1.9-1.9-2.7-2.9c-2.1-2.6-4-5.4-6.1-8c-0.7-0.9-1.8-1.6-2.7-2.3c-0.1,0.2-0.3,0.3-0.4,0.5c0.3,1.5,0.6,3.1,0.9,4.6
			c-0.3,0.1-0.5,0.1-0.8,0.2c-0.2-0.4-0.6-0.8-0.6-1.2c-0.3-2.2-1.7-2.9-3.6-3.7c-2.1-0.9-4-2.1-6.5-1.8c-0.8,0.1-1.6-0.6-2.4-0.9
			c0.9-0.5,1.7-0.4,2.4-0.6c2.1-0.5,4.7-0.5,6.2-1.8c1.9-1.6,3.7-2.2,6-2.1c1.3,0,2.7-0.5,4.1-0.6c1.4,0,3-0.1,4.3,0.4
			c3.3,1.2,4.4,4,4.5,7.2c0.1,6.3,0.2,6.7,3.1,10.7c0.5-5.8,3.4-10.3,7.8-13.8c4-3.2,6.6-7.2,7.1-12.4c0.4-4.2,1.1-8.3,1.6-12.5
			c0-0.1-0.3-0.3-0.9-1c-0.3,2-0.7,3.6-0.8,5.1c-0.1,2.1,0.2,4.2-0.1,6.2c-0.2,1.3-1,2.4-1.9,4.3c-0.9-1.2-1.3-1.6-1.6-2.1
			c-0.1-0.2-0.3-0.4-0.4-0.6c-1.3-4.6-3-8.6-9.1-7c-0.2-2.5-0.9-3-3-1.9c-3.5,1.9-6.5,1.1-9.9-2.1c1.3-0.1,2.5-0.4,3.6-0.3
			c2.4,0.3,5.2-1.6,6-3.9c0.6-1.9,1.4-3.7,2.3-5.5c0.6-1.4,1.5-2.6,2.4-4.3c-2.7,0.6-4.7,1.1-7.2,1.7c1.3-3.2,2.2-5.8,3.3-8.2
			c0.2-0.6,1.1-0.9,1.7-1.3c1.2-0.7,2.5-1.1,3.5-1.9s1.7-1.9,2.6-2.8c1.7-1.8,4.4-3.4,5-5.6c1-3.8,3.7-6.3,5.7-9.3
			c2.1-3.1,3.6-6.3,4.3-9.9c0.8-4,2.5-7.3,5-10.4c3.7-4.5,7.2-9.3,10.6-14.1c2.8-4,5.5-8.2,7.9-12.4c1.5-2.7,3.8-1.7,5.8-1.7
			c0.9,0,1.9,0.4,2.6,0c7.8-3.5,15.5-2,21.5,4.3c0.8,0.9,2.2,1.5,3.4,1.7c4.4,1,9,1.2,13,2.8c3.3,1.3,6.4,2,9.8,1.9
			c5.3,0,10.7-0.1,16,0c2.8,0.1,5.2-0.4,7.6-2c1-0.7,2.5-0.7,3.7-1.2c1.9-0.8,3.9-1.5,5.8-2.5c2.1-1.2,4-2.6,6-3.9
			c3.8-2.4,8.5-3.5,11.6-7.2c0.8-0.9,2.1-1.4,3.2-1.8c4.3-1.6,6.6-4.8,7.7-9.3C556,594.4,554.1,593.7,551.9,592.9z M385.2,749.3
			c-2.2-1.5-4.6-3.4-7-3.8c-3-0.4-3.8-2.3-4.6-4.3c-0.5-1.3-0.5-2.9-0.3-4.4c0.2-1.6,0.2-2.9-1.7-3.7c-0.3,0.6-1.1,1.5-0.9,1.9
			c1,2.3,0,3.6-2,4.3c0.3,1,0.5,1.9,0.8,2.7c1.1,3.4,3.4,5.6,6.8,6.9c3.2,1.3,6.2,2.9,9.6,4.6C386.6,752.7,386.7,750.4,385.2,749.3z
			 M412.9,567.9c-0.9-1.9-1.7-3.7-2.7-5.5c-3.2-5.9-7.1-7.7-13.7-6.5c3.3,1.8,6.8,3,9.4,5.2c2.6,2.3,4.4,5.6,6.5,8.4
			c0.2-0.1,0.4-0.1,0.6-0.2C413.1,568.9,413.1,568.4,412.9,567.9z M395.3,670.3c-0.3,1.1-0.7,2.3-1.2,3.7c-1.9,0.2-4.2,0.7-6.4,0.7
			c-2.2,0-4.4-0.5-6.6-0.8c-0.1,0.3-0.3,0.7-0.4,1.1c0.8,0.5,1.7,1.1,2.6,1.3c1.4,0.3,2.9,0.3,4.4,0.3c1.7,0,3.4,0.3,4.9-0.1
			c2-0.5,3.9-1.4,5.9-2.2C399.5,671.9,396.4,672,395.3,670.3z M392.1,565.8c-1.1-1.2-2.5-2.2-3.5-3.6c-1.4-1.9-4.6-3.6-7-3
			c4.6,4,9,7.9,13.4,11.8c0.3-0.3,0.6-0.5,0.9-0.8C394.6,568.8,393.4,567.2,392.1,565.8z M400.2,562.6c-2.1-1.5-4.2-3-6.5-4.4
			c-1-0.6-2.2-0.8-3.9-1.3c0.3,1,0.3,1.5,0.5,1.6c3.2,1.9,6.3,3.7,9.5,5.5c0.2,0.1,0.6-0.4,0.9-0.5
			C400.7,563.2,400.5,562.8,400.2,562.6z M376.3,680c3,4.6,5.9,6.7,7.8,5.5C382.2,682.9,380.1,680.8,376.3,680z M403.9,667.3
			c-0.1-1-0.4-2.1-0.6-3.4c-0.7,0.5-1.4,1.1-2.2,1.7c0.6,0.7,1.1,1.1,1.3,1.6c0.1,0.2-0.6,1-0.9,1c-1.5-0.2-2.3,0.3-2.4,1.8
			c0.9-0.1,1.8-0.3,2.8-0.3C403.6,669.8,404,668.7,403.9,667.3z M388.2,682.7c-0.9,1.7-1.8,3.2-2.5,4.8c-0.2,0.4,0.2,1.2,0.6,1.6
			c0.3,0.2,1.1,0.2,1.5,0C389,688.2,389.3,684,388.2,682.7z M542.8,586.4c-1,2.1-2,4.1-2.9,6.2c0.8,0.3,1.6,0.6,2.5,1
			c0.4-2.5,0.8-4.8,1.1-7.1C543.2,586.5,543,586.4,542.8,586.4z M552.7,600.3c0.1,0.4,0.5,0.7,0.8,1.1c0.3-0.3,0.8-0.5,0.9-0.9
			c0.4-1.4,0.7-2.8,1-4.5C553.3,596.2,552.2,598.1,552.7,600.3z M365.3,730.5c-0.2,0-0.5,0.1-0.8,0.1c1.3,1.9-2.1,4.4,0.6,6.1
			l1.2-0.2C365.9,734.5,365.6,732.5,365.3,730.5z"/>
		<path class="st0" d="M547.7,564c2.1-1.7,4.1-3.5,6.2-5.2c2.5-2,5.3-3.8,7.6-6c1.1-1,1.7-2.8,1.9-4.3c0.3-1.8-0.1-3.7,0.2-5.5
			c0.2-1.1,0.8-2.4,1.6-3.1c2.2-1.8,3.3-4.3,3.5-6.8c0.1-2.5,1.2-2.5,3.1-2.2c0.1,0.3,0.3,0.7,0.3,1.1c0,1.9,0.7,2.1,2.3,1.4
			c2.1-0.9,3.7-0.7,4.7,1.8c0.6,1.6,1.6,3.1,2.9,4.5c-0.1-0.6-0.1-1.2-0.2-1.9c3.6-0.9,4.2,2.7,6.5,3.8c-3.1,3.4-3.1,3.4-1.1,5
			c0.9-1.2,1.9-2.3,2.8-3.5c0.3,0,0.6,0,0.8,0c0.1,0.9,0.7,2.2,0.3,2.8c-2,3.2-1.3,5.9,1.5,9c-2,0.5-3.5,1.1-5,1.2
			c-4.1,0.3-6.6,2.9-6.9,7c-0.3,4.1-1.6,7.9-4.7,11c-3.6,3.5-7.1,7-10.6,10.6c-2.3,2.4-4.6,4.9-6.9,7.5c-0.5-1.2-1.5-2.6-1.6-4.1
			c0-1.4,1-2.9,1.6-4.6c-2.9,0.2-3.6-1.5-3.6-4.2c1.2,0.1,2.6,0.2,4.3,0.3c2-2,4.4-4.3,6.7-6.7c2.1-2.1,4-4.2,6.2-6.1
			c1.2-1,2.6-1.9,4-2.5c1.7-0.6,2-1.5,1.5-3.1c-0.2-0.7,0-1.5,0-2.6c-2.1-0.3-4.1-0.4-6.1-0.9c-1.9-0.5-4.2-0.5-4.9-3.2
			c-0.5-1.7-1.8-1.8-3.3-0.7c-4.8,3.6-9.7,7-14.5,10.5c-0.1,0.1-0.3,0-0.4,0C548,564.4,547.9,564.2,547.7,564z"/>
		<path class="st0" d="M436.7,502.1c1-2,1.7-3.6,2.6-5.5c0.6,0.8,1,1.1,1.1,1.5c0.4,1.4,0.8,2.9,1.2,4.3
			C440.3,502.4,438.9,502.3,436.7,502.1z"/>
		<path class="st0" d="M405.5,704.3c0-2.5,0-5,0-8c0.9,0.6,1.8,1.2,2.7,1.8c-0.2,0.1-0.4,0.2-0.6,0.3c0.1,1.4,0.4,2.8,0.2,4.1
			c-0.1,0.8-0.9,1.6-1.4,2.4C406.1,704.7,405.8,704.5,405.5,704.3z"/>
		<path class="st0" d="M431.3,501.4c-0.2-2-0.5-4-0.5-6c0-0.3,1.2-0.9,1.3-0.8c0.6,0.5,1.4,1.2,1.3,1.8c-0.2,1.6-0.7,3.2-1.1,4.8
			C432,501.3,431.7,501.4,431.3,501.4z"/>
		<path class="st0" d="M479.2,573.6c-2.1,0.5-3.7,1-5.2,1.2c-0.5,0.1-1.1-0.7-1.7-1.1c0.1-0.2,0.2-0.4,0.3-0.5
			C474.6,573.3,476.7,573.4,479.2,573.6z"/>
		<path class="st0" d="M423.1,486.5c-2.5-1-2.4-1.9,0-4C423.1,483.8,423.1,485.1,423.1,486.5z"/>
		<path class="st0" d="M440.7,557.5c2.2,0.5,4.3,1,6.5,1.6c0,0.1-0.1,0.2-0.1,0.4c-2.2-0.4-4.4-0.8-6.6-1.2
			C440.6,558,440.7,557.7,440.7,557.5z"/>
		<path class="st0" d="M385.7,753.7c-3.5-1.7-6.5-3.4-9.6-4.6c-3.3-1.3-5.6-3.5-6.8-6.9c-0.3-0.8-0.5-1.7-0.8-2.7c2-0.8,2.9-2,2-4.3
			c-0.2-0.4,0.6-1.3,0.9-1.9c2,0.8,1.9,2.1,1.7,3.7c-0.2,1.4-0.2,3.1,0.3,4.4c0.8,2.1,1.6,3.9,4.6,4.3c2.5,0.3,4.8,2.3,7,3.8
			C386.7,750.4,386.6,752.7,385.7,753.7z"/>
		<path class="st0" d="M396.6,556c6.5-1.3,10.4,0.6,13.7,6.5c1,1.8,1.8,3.7,2.7,5.5c0.2,0.4,0.2,1,0.2,1.5c-0.2,0.1-0.4,0.1-0.6,0.2
			c-2.1-2.8-3.9-6.1-6.5-8.4C403.3,558.9,399.8,557.7,396.6,556z"/>
		<path class="st0" d="M381.1,673.9c2.2,0.3,4.4,0.8,6.6,0.9c2.3,0,4.5-0.5,6.4-0.7c0.4-1.4,0.8-2.6,1.2-3.7c1.1,1.7,4.2,1.6,3.2,4
			c-2.1,0.8-3.9,1.8-5.9,2.2c-1.6,0.4-3.3,0.1-4.9,0.1c-1.5,0-3,0-4.4-0.3c-0.9-0.2-1.7-0.9-2.6-1.3
			C380.8,674.6,381,674.2,381.1,673.9z"/>
		<path class="st0" d="M395,571.1c-4.4-3.9-8.8-7.8-13.4-11.8c2.4-0.6,5.6,1,7,3c1,1.3,2.4,2.3,3.5,3.6c1.3,1.4,2.5,3,3.8,4.5
			C395.6,570.5,395.3,570.8,395,571.1z"/>
		<path class="st0" d="M389.9,556.9c1.6,0.5,2.9,0.7,3.9,1.3c2.2,1.3,4.3,2.9,6.4,4.4c0.3,0.2,0.4,0.6,0.7,0.9
			c-0.3,0.2-0.8,0.6-0.9,0.5c-3.2-1.8-6.4-3.6-9.5-5.4C390.3,558.4,390.3,558,389.9,556.9z"/>
		<path class="st0" d="M376.3,680c3.8,0.8,5.9,2.9,7.8,5.5C382.2,686.7,379.3,684.7,376.3,680z"/>
		<path class="st0" d="M401.1,665.7c0.8-0.6,1.5-1.2,2.2-1.7c0.3,1.3,0.6,2.4,0.6,3.4c0.1,1.4-0.3,2.4-2,2.4c-0.9,0-1.8,0.2-2.8,0.3
			c0.1-1.5,1-2,2.4-1.9c0.3,0,1-0.8,0.9-1C402.2,666.7,401.7,666.3,401.1,665.7z"/>
		<path class="st0" d="M388.2,682.7c1.1,1.3,0.8,5.5-0.4,6.3c-0.4,0.2-1.2,0.3-1.4,0c-0.4-0.4-0.8-1.2-0.6-1.6
			C386.4,685.9,387.3,684.4,388.2,682.7z"/>
		<path class="st0" d="M543.4,586.5c-0.4,2.3-0.7,4.6-1.1,7.1c-0.9-0.3-1.7-0.6-2.5-1c1-2.1,2-4.2,2.9-6.2
			C543,586.4,543.2,586.5,543.4,586.5z"/>
		<path class="st0" d="M555.4,596c-0.3,1.6-0.6,3.1-1,4.5c-0.1,0.4-0.6,0.6-0.9,0.9c-0.3-0.4-0.7-0.7-0.8-1.1
			C552.2,598.1,553.3,596.2,555.4,596z"/>
		<path class="st0" d="M365.1,736.7c-2.7-1.7,0.7-4.2-0.6-6.1c0.3,0,0.5-0.1,0.8-0.1c0.3,2,0.7,4,1,6
			C365.9,736.5,365.5,736.6,365.1,736.7z"/>
	</g>
</g>
<path class="st1" d="M726.3,319.8c-11.4,6.4-22.6,15.5-31.1,25c-6.6,7.4-11.6,15.2-19.2,22.2c-7.6,7-16.8,12.4-25.5,18.1
	c-8.7,5.7-17.9,12.7-22.7,20.1c-0.6,0.9-1.2,2-0.8,2.5c0.3,0.5,1.3,0.4,2.3,0.2c6.5-1.3,14.5-5.6,21.2-11.1
	c-1.9,5.8-7.4,12.9-14.4,18.7c-3.5,2.9-7.5,5.7-9.8,8.8c-2.2,3.2,0,5.8,3.7,3.1c-13.3,17.2-28.4,35.7-48.4,49.1
	c-13.5,9.1-27.8,14.6-40.1,17.2h-0.1l0,0c0,0-0.1,0-0.2,0c2.2,1.5,4.4,3.1,6.7,4.6c-26.7,12.4-50.1,10.9-54.9-3.5
	c-1-2.8-4.8-3.3-8.1-4.2c-8-2.3-12.8-7.8-13.6-15.8c-0.3-2.9-0.1-6.2-0.3-9.1c-0.5-6.2-3.2-11.2-3-17.8
	c0.3-14.6,15.8-36.7,36.9-52.7c12.5-9.5,26-16.5,39.2-24s27-16.2,37.5-27.1c2.7,2-0.2,7.9-4.7,12.8c-4.6,4.9-10.5,9.2-16,13.7
	c-5.5,4.4-11.2,9.4-14,14.3c-2,3.5,2.9,3.6,7.1,1c4.2-2.6,7.4-6.5,10.6-10c2.9-3.1,6-6.2,9.4-9.2c-0.1,0,0-0.2,0.1-0.2
	c0,0,0.1,0,0,0c5.8-5.1,12.1-9.8,18.6-13.7c8-4.9,16.1-8.6,24.2-13.1c8.1-4.5,16.5-10.1,22.7-16.8c1,3.1-1.7,8.5-5.9,13.3
	c-4.1,4.9-9.5,9.5-14.8,13.9c6.6,0.8,17.7-4.1,25.9-11.5c11.6-10.4,15.5-22.6,26.9-33.1c9.5-8.7,21.9-14.1,31.4-15.5
	c7.1-1.1,13.2-0.3,17.2,2.1c-9.2,2.6-20,6.2-28.3,14.1c-8.9,8.5-10,17-15.2,25.8c-3.9,6.6-10.7,13.7-18.4,19.3c-2.1,1.6-5,3.9-4.5,5
	c6.6,0.3,17.2-4.7,24.8-11.8c4.4-4.1,7.7-8.5,12-12.7C702.5,320.6,720.9,314.3,726.3,319.8z"/>
</svg>
