<?xml version="1.0" encoding="utf-8"?>
<!-- Generator: Adobe Illustrator 23.0.1, SVG Export Plug-In . SVG Version: 6.00 Build 0)  -->
<svg version="1.1" id="Layer_1" xmlns="http://www.w3.org/2000/svg" xmlns:xlink="http://www.w3.org/1999/xlink" x="0px" y="0px"
	 viewBox="0 0 58 554.4" style="enable-background:new 0 0 58 554.4;" xml:space="preserve">
<g>
	<g>
		<polygon points="30.4,0 28.6,1 0,17.5 0,16.4 26.6,1 28.4,0 		"/>
	</g>
	<g>
		<polygon points="58.5,1.7 0,35.4 0,34.3 58,0.8 		"/>
	</g>
	<g>
		<polygon points="58.5,19.5 0,53.3 0,52.2 58,18.7 		"/>
	</g>
	<g>
		<polygon points="58.5,37.5 0,71.2 0,70.1 58,36.6 		"/>
	</g>
	<g>
		<polygon points="58.5,55.3 0,89.1 0,88 58,54.5 		"/>
	</g>
	<g>
		<polygon points="58.5,73.2 0,107 0,105.8 58,72.4 		"/>
	</g>
	<g>
		<polygon points="58.5,91.1 0,124.9 0,123.8 58,90.3 		"/>
	</g>
	<g>
		<polygon points="58.5,109 0,142.8 0,141.6 58,108.2 		"/>
	</g>
	<g>
		<polygon points="58.5,126.9 0,160.7 0,159.5 58,126.1 		"/>
	</g>
	<g>
		<polygon points="58.5,144.8 0,178.6 0,177.4 58,144 		"/>
	</g>
	<g>
		<polygon points="58.5,162.7 0,196.5 0,195.3 58,161.8 		"/>
	</g>
	<g>
		<polygon points="58.5,180.6 0,214.4 0,213.2 58,179.7 		"/>
	</g>
	<g>
		<polygon points="58.5,198.5 0,232.3 0,231.1 58,197.6 		"/>
	</g>
	<g>
		<polygon points="58.5,216.4 0,250.2 0,249 58,215.5 		"/>
	</g>
	<g>
		<polygon points="58.5,234.3 0,268.1 0,266.9 58,233.4 		"/>
	</g>
	<g>
		<polygon points="58.5,252.2 0,286 0,284.8 58,251.3 		"/>
	</g>
	<g>
		<polygon points="58.5,270.1 0,303.8 0,302.7 58,269.2 		"/>
	</g>
	<g>
		<polygon points="58.5,288 0,321.8 0,320.6 58,287.1 		"/>
	</g>
	<g>
		<polygon points="58.5,305.9 0,339.6 0,338.5 58,305 		"/>
	</g>
	<g>
		<polygon points="58.5,323.8 0,357.5 0,356.4 58,322.9 		"/>
	</g>
	<g>
		<polygon points="58.5,341.7 0,375.4 0,374.3 58,340.8 		"/>
	</g>
	<g>
		<polygon points="58.5,359.6 0,393.3 0,392.2 58,358.7 		"/>
	</g>
	<g>
		<polygon points="58.5,377.5 0,411.2 0,410.1 58,376.6 		"/>
	</g>
	<g>
		<polygon points="58.5,395.3 0,429.1 0,428 58,394.5 		"/>
	</g>
	<g>
		<polygon points="58.5,413.2 0,447 0,445.8 58,412.4 		"/>
	</g>
	<g>
		<polygon points="58.5,431.1 0,464.9 0,463.8 58,430.3 		"/>
	</g>
	<g>
		<polygon points="58.5,449 0,482.8 0,481.6 58,448.2 		"/>
	</g>
	<g>
		<polygon points="58.5,466.9 0,500.7 0,499.5 58,466.1 		"/>
	</g>
	<g>
		<polygon points="58.5,484.8 0,518.6 0,517.4 58,484 		"/>
	</g>
	<g>
		<polygon points="58.5,502.7 0,536.5 0,535.3 58,501.8 		"/>
	</g>
	<g>
		<polygon points="58.5,520.6 0,554.4 0,553.2 58,519.7 		"/>
	</g>
</g>
</svg>
